<?xml version="1.0" encoding="UTF-8" standalone="no"?>
<svg
   xmlns:dc="http://purl.org/dc/elements/1.1/"
   xmlns:cc="http://creativecommons.org/ns#"
   xmlns:rdf="http://www.w3.org/1999/02/22-rdf-syntax-ns#"
   xmlns:svg="http://www.w3.org/2000/svg"
   xmlns="http://www.w3.org/2000/svg"
   xmlns:sodipodi="http://sodipodi.sourceforge.net/DTD/sodipodi-0.dtd"
   xmlns:inkscape="http://www.inkscape.org/namespaces/inkscape"
   inkscape:version="1.0 (4035a4fb49, 2020-05-01)"
   sodipodi:docname="r.svg"
   viewBox="0 0 10.901333 9.4119998"
   height="31.373333"
   width="36.337776"
   xml:space="preserve"
   id="svg2"
   version="1.1"><metadata
     id="metadata8"><rdf:RDF><cc:Work
         rdf:about=""><dc:format>image/svg+xml</dc:format><dc:type
           rdf:resource="http://purl.org/dc/dcmitype/StillImage" /><dc:title></dc:title></cc:Work></rdf:RDF></metadata><defs
     id="defs6"><clipPath
       id="clipPath20"
       clipPathUnits="userSpaceOnUse"><path
         id="path18"
         d="M 1.68,0.391 C 1.527,0.391 1.438,0.387 1.406,0.379 1.379,0.375 1.363,0.344 1.363,0.289 1.363,0.141 1.395,0.043 1.457,0.012 1.469,0.008 1.965,0 2.941,0 3.918,0.008 4.445,0.02 4.527,0.031 4.844,0.074 5.113,0.152 5.328,0.266 5.543,0.375 5.695,0.504 5.789,0.648 5.879,0.793 5.938,0.914 5.965,1.008 5.996,1.105 6.012,1.199 6.016,1.297 6.016,1.551 5.938,1.785 5.77,2 5.605,2.223 5.414,2.383 5.199,2.504 4.984,2.625 4.793,2.719 4.629,2.793 4.465,2.863 4.355,2.898 4.305,2.898 L 4.363,2.941 C 4.746,3.152 4.938,3.465 4.938,3.867 4.938,3.926 4.922,4.094 4.891,4.375 4.863,4.656 4.852,4.887 4.852,5.066 v 0.071 c 0,0.101 0,0.179 0.007,0.242 0.004,0.051 0.036,0.101 0.094,0.148 0.055,0.043 0.129,0.067 0.223,0.071 0.156,0 0.289,-0.059 0.39,-0.18 C 5.668,5.293 5.742,5.16 5.789,5.023 5.816,4.945 5.84,4.898 5.855,4.879 5.871,4.863 5.914,4.855 5.984,4.855 c 0.114,0 0.168,0.032 0.168,0.102 0,0.098 -0.066,0.258 -0.203,0.473 C 5.734,5.754 5.477,5.91 5.184,5.91 H 5.105 C 4.758,5.91 4.473,5.84 4.246,5.699 4.016,5.563 3.891,5.34 3.871,5.047 3.871,4.898 3.914,4.664 3.996,4.34 4.082,4.02 4.125,3.816 4.125,3.727 4.125,3.445 4.004,3.234 3.758,3.109 3.676,3.066 3.602,3.051 3.547,3.043 3.488,3.039 3.289,3.031 2.941,3.023 H 2.352 l -0.27,1.094 c -0.191,0.738 -0.281,1.11 -0.281,1.121 0,0.024 0,0.035 0.008,0.043 0.004,0.008 0.023,0.02 0.058,0.035 0.035,0.02 0.082,0.024 0.145,0.02 0.062,-0.008 0.156,0 0.281,0.012 H 2.559 C 2.59,5.395 2.609,5.418 2.609,5.426 2.609,5.43 2.602,5.48 2.582,5.574 2.563,5.648 2.531,5.699 2.496,5.738 H 2.371 C 2.164,5.727 1.793,5.719 1.254,5.719 c -0.191,0 -0.371,0 -0.539,0 -0.164,0 -0.293,0 -0.391,0 -0.097,0 -0.156,0 -0.179,0.008 C 0.051,5.727 0,5.699 0,5.652 0,5.641 0.008,5.598 0.027,5.535 0.055,5.426 0.082,5.371 0.113,5.359 0.133,5.352 0.176,5.348 0.238,5.348 H 0.289 C 0.445,5.348 0.613,5.34 0.801,5.324 0.883,5.305 0.938,5.273 0.965,5.223 0.98,5.203 1.188,4.422 1.578,2.895 1.969,1.355 2.164,0.547 2.164,0.465 2.164,0.426 2.004,0.402 1.68,0.391 M 5.09,1.086 C 5.09,0.906 5.027,0.758 4.91,0.633 4.789,0.512 4.547,0.434 4.176,0.398 c -0.012,0 -0.074,0 -0.196,0 -0.117,0 -0.226,-0.007 -0.324,-0.007 H 3.469 C 3.203,0.391 3.051,0.414 3.008,0.477 3.004,0.488 2.906,0.859 2.719,1.59 2.531,2.316 2.438,2.688 2.438,2.707 2.438,2.715 2.633,2.715 3.027,2.715 3.469,2.707 3.766,2.688 3.914,2.652 4.277,2.598 4.563,2.43 4.766,2.16 4.855,2.027 4.934,1.863 4.996,1.656 5.059,1.445 5.09,1.262 5.09,1.086 M 1.68,0.391 C 1.527,0.391 1.438,0.387 1.406,0.383 1.379,0.375 1.363,0.344 1.363,0.289 1.363,0.137 1.395,0.047 1.457,0.012 1.469,0.008 1.965,0.004 2.941,0.004 3.918,0.012 4.445,0.02 4.527,0.027 4.844,0.074 5.113,0.152 5.328,0.266 5.543,0.375 5.695,0.504 5.789,0.648 5.879,0.797 5.938,0.918 5.965,1.012 5.996,1.105 6.012,1.199 6.016,1.297 6.016,1.547 5.938,1.785 5.77,2.004 5.605,2.219 5.414,2.387 5.199,2.504 4.984,2.625 4.793,2.719 4.629,2.789 4.465,2.863 4.355,2.898 4.305,2.898 l 0.058,0.043 c 0.383,0.211 0.575,0.52 0.575,0.926 0,0.059 -0.016,0.231 -0.047,0.512 C 4.863,4.656 4.852,4.887 4.852,5.066 v 0.075 c 0,0.101 0,0.179 0.007,0.234 0.004,0.059 0.036,0.105 0.094,0.152 0.055,0.043 0.129,0.071 0.223,0.075 0.156,0 0.289,-0.059 0.39,-0.184 C 5.668,5.293 5.742,5.164 5.789,5.023 5.816,4.945 5.84,4.898 5.855,4.879 5.871,4.863 5.914,4.855 5.984,4.855 c 0.114,0 0.168,0.036 0.168,0.102 0,0.102 -0.066,0.258 -0.203,0.477 -0.215,0.32 -0.472,0.48 -0.765,0.48 H 5.105 C 4.758,5.914 4.473,5.844 4.246,5.703 4.016,5.563 3.891,5.344 3.871,5.047 3.871,4.898 3.914,4.664 3.996,4.344 4.082,4.023 4.125,3.82 4.125,3.73 4.125,3.445 4.004,3.238 3.758,3.109 3.676,3.07 3.602,3.047 3.547,3.043 3.488,3.039 3.289,3.031 2.941,3.023 H 2.352 L 2.082,4.117 C 1.891,4.855 1.801,5.23 1.801,5.242 c 0,0.024 0,0.035 0.008,0.043 0.004,0.004 0.023,0.016 0.058,0.031 0.035,0.02 0.082,0.024 0.145,0.02 0.062,-0.008 0.156,0 0.281,0.016 h 0.266 c 0.031,0.043 0.05,0.07 0.05,0.074 0,0.008 -0.007,0.054 -0.027,0.152 -0.019,0.07 -0.051,0.125 -0.086,0.16 H 2.371 C 2.164,5.727 1.793,5.719 1.254,5.719 c -0.191,0 -0.371,0 -0.539,0 -0.164,0 -0.293,0 -0.391,0 -0.097,0 -0.156,0.004 -0.179,0.008 C 0.051,5.727 0,5.703 0,5.652 0,5.641 0.008,5.602 0.027,5.535 0.055,5.43 0.082,5.371 0.113,5.359 0.133,5.352 0.176,5.352 0.238,5.352 H 0.289 C 0.445,5.352 0.613,5.344 0.801,5.324 0.883,5.309 0.938,5.273 0.965,5.223 0.98,5.203 1.188,4.426 1.578,2.891 1.969,1.359 2.164,0.551 2.164,0.465 2.164,0.426 2.004,0.402 1.68,0.391 M 5.09,1.086 C 5.09,0.91 5.027,0.758 4.91,0.633 4.789,0.512 4.547,0.434 4.176,0.398 c -0.012,0 -0.074,0 -0.196,0 -0.117,0 -0.226,-0.003 -0.324,-0.007 H 3.469 C 3.203,0.391 3.051,0.418 3.008,0.473 3.004,0.492 2.906,0.863 2.719,1.59 2.531,2.316 2.438,2.691 2.438,2.707 2.438,2.711 2.633,2.715 3.027,2.715 3.469,2.711 3.766,2.691 3.914,2.656 4.277,2.602 4.563,2.438 4.766,2.16 4.855,2.035 4.934,1.867 4.996,1.66 5.059,1.449 5.09,1.262 5.09,1.086 M 6.344,4.711 C 6.316,4.68 6.305,4.664 6.305,4.652 6.305,4.633 6.309,4.602 6.32,4.555 6.332,4.508 6.344,4.484 6.352,4.473 6.359,4.453 6.375,4.441 6.406,4.441 c 0.028,0 0.129,0 0.305,-0.007 h 0.32 L 7.145,3.961 C 7.156,3.918 7.172,3.859 7.188,3.789 7.203,3.723 7.219,3.668 7.23,3.637 7.242,3.602 7.254,3.566 7.266,3.516 7.313,3.395 7.336,3.328 7.461,3.289 7.496,3.285 7.531,3.277 7.566,3.277 7.641,3.285 7.691,3.309 7.719,3.344 7.746,3.387 7.762,3.422 7.762,3.457 7.762,3.488 7.742,3.578 7.707,3.738 7.672,3.895 7.629,4.051 7.586,4.207 L 7.527,4.422 c 0,0.012 0.098,0.012 0.301,0.012 H 8.133 C 8.164,4.465 8.176,4.488 8.176,4.5 8.176,4.59 8.152,4.656 8.098,4.711 H 7.453 L 7.238,5.57 C 7.078,6.203 7,6.543 7,6.59 7,6.758 7.055,6.84 7.164,6.84 7.305,6.84 7.441,6.773 7.574,6.637 7.707,6.504 7.813,6.336 7.895,6.141 7.902,6.117 7.91,6.102 7.926,6.098 7.938,6.09 7.965,6.09 8.012,6.086 h 0.027 c 0.059,0 0.09,0.016 0.09,0.047 0,0.012 -0.008,0.035 -0.02,0.07 C 8.09,6.27 8.055,6.344 8,6.434 7.949,6.516 7.883,6.613 7.797,6.711 7.711,6.813 7.609,6.891 7.488,6.961 7.367,7.027 7.246,7.059 7.121,7.059 7,7.059 6.887,7.027 6.777,6.973 6.672,6.914 6.59,6.813 6.543,6.66 6.523,6.563 6.516,6.527 6.531,6.398 L 6.742,5.563 C 6.883,5.004 6.957,4.723 6.961,4.723 6.961,4.711 6.855,4.711 6.652,4.711 H 6.344 m 0,-0.004 C 6.316,4.68 6.305,4.66 6.305,4.648 6.305,4.633 6.309,4.598 6.32,4.551 6.332,4.504 6.344,4.477 6.352,4.469 6.359,4.449 6.375,4.438 6.406,4.438 c 0.028,0 0.129,0 0.305,-0.004 h 0.32 L 7.145,3.957 C 7.156,3.914 7.172,3.855 7.188,3.785 7.203,3.715 7.219,3.664 7.23,3.633 7.242,3.602 7.254,3.563 7.266,3.512 7.277,3.465 7.297,3.434 7.316,3.414 7.336,3.395 7.355,3.371 7.375,3.34 7.395,3.313 7.426,3.297 7.461,3.289 7.496,3.281 7.531,3.277 7.566,3.277 7.641,3.281 7.691,3.301 7.719,3.34 7.746,3.383 7.762,3.418 7.762,3.453 7.762,3.48 7.742,3.574 7.707,3.734 7.672,3.891 7.629,4.047 7.586,4.203 L 7.527,4.422 c 0,0.008 0.098,0.012 0.301,0.012 h 0.305 c 0.031,0.027 0.043,0.05 0.043,0.066 0,0.086 -0.024,0.156 -0.078,0.207 H 7.453 L 7.238,5.566 C 7.078,6.199 7,6.539 7,6.586 7,6.754 7.055,6.836 7.164,6.836 7.305,6.836 7.441,6.77 7.574,6.637 7.707,6.5 7.813,6.336 7.895,6.137 7.902,6.113 7.91,6.098 7.926,6.094 7.938,6.09 7.965,6.086 8.012,6.082 h 0.027 c 0.059,0 0.09,0.016 0.09,0.047 0,0.012 -0.008,0.039 -0.02,0.07 C 8.09,6.266 8.055,6.34 8,6.426 7.949,6.516 7.883,6.605 7.797,6.707 7.711,6.805 7.609,6.887 7.488,6.953 7.367,7.023 7.246,7.055 7.121,7.055 7,7.055 6.887,7.027 6.777,6.969 6.672,6.91 6.59,6.805 6.543,6.66 6.535,6.629 6.531,6.574 6.531,6.5 V 6.391 L 6.742,5.559 C 6.883,5.004 6.957,4.723 6.961,4.719 6.961,4.711 6.855,4.707 6.652,4.707 Z" /></clipPath><clipPath
       id="clipPath30"
       clipPathUnits="userSpaceOnUse"><path
         id="path28"
         d="M 0,0 H 9 V 8 H 0 Z" /></clipPath></defs><sodipodi:namedview
     fit-margin-bottom="0"
     fit-margin-right="0"
     fit-margin-left="0"
     fit-margin-top="0"
     scale-x="0.3"
     inkscape:current-layer="g10"
     inkscape:window-maximized="1"
     inkscape:window-y="-9"
     inkscape:window-x="-9"
     inkscape:cy="11.523318"
     inkscape:cx="-43.793894"
     inkscape:zoom="9.7621803"
     showgrid="false"
     id="namedview4"
     inkscape:window-height="1361"
     inkscape:window-width="2560"
     inkscape:pageshadow="2"
     inkscape:pageopacity="0"
     guidetolerance="10"
     gridtolerance="10"
     objecttolerance="10"
     borderopacity="1"
     bordercolor="#666666"
     pagecolor="#ffffff" /><g
     transform="scale(1.3333333)"
     inkscape:label="r"
     inkscape:groupmode="layer"
     id="g10"><g
       id="g12" /><g
       id="g14"><g
         clip-path="url(#clipPath20)"
         id="g16"><g
           id="g22"><g
             id="g24"><g
               clip-path="url(#clipPath30)"
               id="g26"><g
                 id="g32"><path
                   id="path34"
                   style="fill:#0f0c0c;fill-opacity:1;fill-rule:nonzero;stroke:none"
                   d="M 1.68,0.391 C 1.527,0.391 1.438,0.387 1.406,0.379 1.379,0.375 1.363,0.344 1.363,0.289 1.363,0.141 1.395,0.043 1.457,0.012 1.469,0.008 1.965,0 2.941,0 3.918,0.008 4.445,0.02 4.527,0.031 4.844,0.074 5.113,0.152 5.328,0.266 5.543,0.375 5.695,0.504 5.789,0.648 5.879,0.793 5.938,0.914 5.965,1.008 5.996,1.105 6.012,1.199 6.016,1.297 6.016,1.551 5.938,1.785 5.77,2 5.605,2.223 5.414,2.383 5.199,2.504 4.984,2.625 4.793,2.719 4.629,2.793 4.465,2.863 4.355,2.898 4.305,2.898 L 4.363,2.941 C 4.746,3.152 4.938,3.465 4.938,3.867 4.938,3.926 4.922,4.094 4.891,4.375 4.863,4.656 4.852,4.887 4.852,5.066 v 0.071 c 0,0.101 0,0.179 0.007,0.242 0.004,0.051 0.036,0.101 0.094,0.148 0.055,0.043 0.129,0.067 0.223,0.071 0.156,0 0.289,-0.059 0.39,-0.18 C 5.668,5.293 5.742,5.16 5.789,5.023 5.816,4.945 5.84,4.898 5.855,4.879 5.871,4.863 5.914,4.855 5.984,4.855 c 0.114,0 0.168,0.032 0.168,0.102 0,0.098 -0.066,0.258 -0.203,0.473 C 5.734,5.754 5.477,5.91 5.184,5.91 H 5.105 C 4.758,5.91 4.473,5.84 4.246,5.699 4.016,5.563 3.891,5.34 3.871,5.047 3.871,4.898 3.914,4.664 3.996,4.34 4.082,4.02 4.125,3.816 4.125,3.727 4.125,3.445 4.004,3.234 3.758,3.109 3.676,3.066 3.602,3.051 3.547,3.043 3.488,3.039 3.289,3.031 2.941,3.023 H 2.352 l -0.27,1.094 c -0.191,0.738 -0.281,1.11 -0.281,1.121 0,0.024 0,0.035 0.008,0.043 0.004,0.008 0.023,0.02 0.058,0.035 0.035,0.02 0.082,0.024 0.145,0.02 0.062,-0.008 0.156,0 0.281,0.012 H 2.559 C 2.59,5.395 2.609,5.418 2.609,5.426 2.609,5.43 2.602,5.48 2.582,5.574 2.563,5.648 2.531,5.699 2.496,5.738 H 2.371 C 2.164,5.727 1.793,5.719 1.254,5.719 c -0.191,0 -0.371,0 -0.539,0 -0.164,0 -0.293,0 -0.391,0 -0.097,0 -0.156,0 -0.179,0.008 C 0.051,5.727 0,5.699 0,5.652 0,5.641 0.008,5.598 0.027,5.535 0.055,5.426 0.082,5.371 0.113,5.359 0.133,5.352 0.176,5.348 0.238,5.348 H 0.289 C 0.445,5.348 0.613,5.34 0.801,5.324 0.883,5.305 0.938,5.273 0.965,5.223 0.98,5.203 1.188,4.422 1.578,2.895 1.969,1.355 2.164,0.547 2.164,0.465 2.164,0.426 2.004,0.402 1.68,0.391 M 5.09,1.086 C 5.09,0.906 5.027,0.758 4.91,0.633 4.789,0.512 4.547,0.434 4.176,0.398 c -0.012,0 -0.074,0 -0.196,0 -0.117,0 -0.226,-0.007 -0.324,-0.007 H 3.469 C 3.203,0.391 3.051,0.414 3.008,0.477 3.004,0.488 2.906,0.859 2.719,1.59 2.531,2.316 2.438,2.688 2.438,2.707 2.438,2.715 2.633,2.715 3.027,2.715 3.469,2.707 3.766,2.688 3.914,2.652 4.277,2.598 4.563,2.43 4.766,2.16 4.855,2.027 4.934,1.863 4.996,1.656 5.059,1.445 5.09,1.262 5.09,1.086" /><g
                   id="g36"><path
                     id="path38"
                     style="fill:none;stroke:#0f0c0c;stroke-width:0.00800003;stroke-linecap:butt;stroke-linejoin:miter;stroke-miterlimit:4;stroke-dasharray:none;stroke-opacity:1"
                     d="M 1.68,0.391 C 1.527,0.391 1.438,0.387 1.406,0.383 1.379,0.375 1.363,0.344 1.363,0.289 1.363,0.137 1.395,0.047 1.457,0.012 1.469,0.008 1.965,0.004 2.941,0.004 3.918,0.012 4.445,0.02 4.527,0.027 4.844,0.074 5.113,0.152 5.328,0.266 5.543,0.375 5.695,0.504 5.789,0.648 5.879,0.797 5.938,0.918 5.965,1.012 5.996,1.105 6.012,1.199 6.016,1.297 6.016,1.547 5.938,1.785 5.77,2.004 5.605,2.219 5.414,2.387 5.199,2.504 4.984,2.625 4.793,2.719 4.629,2.789 4.465,2.863 4.355,2.898 4.305,2.898 l 0.058,0.043 c 0.383,0.211 0.575,0.52 0.575,0.926 0,0.059 -0.016,0.231 -0.047,0.512 C 4.863,4.656 4.852,4.887 4.852,5.066 v 0.075 c 0,0.101 0,0.179 0.007,0.234 0.004,0.059 0.036,0.105 0.094,0.152 0.055,0.043 0.129,0.071 0.223,0.075 0.156,0 0.289,-0.059 0.39,-0.184 C 5.668,5.293 5.742,5.164 5.789,5.023 5.816,4.945 5.84,4.898 5.855,4.879 5.871,4.863 5.914,4.855 5.984,4.855 c 0.114,0 0.168,0.036 0.168,0.102 0,0.102 -0.066,0.258 -0.203,0.477 -0.215,0.32 -0.472,0.48 -0.765,0.48 H 5.105 C 4.758,5.914 4.473,5.844 4.246,5.703 4.016,5.563 3.891,5.344 3.871,5.047 3.871,4.898 3.914,4.664 3.996,4.344 4.082,4.023 4.125,3.82 4.125,3.73 4.125,3.445 4.004,3.238 3.758,3.109 3.676,3.07 3.602,3.047 3.547,3.043 3.488,3.039 3.289,3.031 2.941,3.023 H 2.352 L 2.082,4.117 C 1.891,4.855 1.801,5.23 1.801,5.242 c 0,0.024 0,0.035 0.008,0.043 0.004,0.004 0.023,0.016 0.058,0.031 0.035,0.02 0.082,0.024 0.145,0.02 0.062,-0.008 0.156,0 0.281,0.016 h 0.266 c 0.031,0.043 0.05,0.07 0.05,0.074 0,0.008 -0.007,0.054 -0.027,0.152 -0.019,0.07 -0.051,0.125 -0.086,0.16 H 2.371 C 2.164,5.727 1.793,5.719 1.254,5.719 c -0.191,0 -0.371,0 -0.539,0 -0.164,0 -0.293,0 -0.391,0 -0.097,0 -0.156,0.004 -0.179,0.008 C 0.051,5.727 0,5.703 0,5.652 0,5.641 0.008,5.602 0.027,5.535 0.055,5.43 0.082,5.371 0.113,5.359 0.133,5.352 0.176,5.352 0.238,5.352 H 0.289 C 0.445,5.352 0.613,5.344 0.801,5.324 0.883,5.309 0.938,5.273 0.965,5.223 0.98,5.203 1.188,4.426 1.578,2.891 1.969,1.359 2.164,0.551 2.164,0.465 2.164,0.426 2.004,0.402 1.68,0.391" /></g><g
                   id="g40"><path
                     id="path42"
                     style="fill:none;stroke:#0f0c0c;stroke-width:0.00800003;stroke-linecap:butt;stroke-linejoin:miter;stroke-miterlimit:4;stroke-dasharray:none;stroke-opacity:1"
                     d="M 5.09,1.086 C 5.09,0.91 5.027,0.758 4.91,0.633 4.789,0.512 4.547,0.434 4.176,0.398 c -0.012,0 -0.074,0 -0.196,0 -0.117,0 -0.226,-0.003 -0.324,-0.007 H 3.469 C 3.203,0.391 3.051,0.418 3.008,0.473 3.004,0.492 2.906,0.863 2.719,1.59 2.531,2.316 2.438,2.691 2.438,2.707 2.438,2.711 2.633,2.715 3.027,2.715 3.469,2.711 3.766,2.691 3.914,2.656 4.277,2.602 4.563,2.438 4.766,2.16 4.855,2.035 4.934,1.867 4.996,1.66 5.059,1.449 5.09,1.262 5.09,1.086" /></g><path
                   id="path44"
                   style="fill:#0f0c0c;fill-opacity:1;fill-rule:nonzero;stroke:none"
                   d="M 6.344,4.711 C 6.316,4.68 6.305,4.664 6.305,4.652 6.305,4.633 6.309,4.602 6.32,4.555 6.332,4.508 6.344,4.484 6.352,4.473 6.359,4.453 6.375,4.441 6.406,4.441 c 0.028,0 0.129,0 0.305,-0.007 h 0.32 L 7.145,3.961 C 7.156,3.918 7.172,3.859 7.188,3.789 7.203,3.723 7.219,3.668 7.23,3.637 7.242,3.602 7.254,3.566 7.266,3.516 7.313,3.395 7.336,3.328 7.461,3.289 7.496,3.285 7.531,3.277 7.566,3.277 7.641,3.285 7.691,3.309 7.719,3.344 7.746,3.387 7.762,3.422 7.762,3.457 7.762,3.488 7.742,3.578 7.707,3.738 7.672,3.895 7.629,4.051 7.586,4.207 L 7.527,4.422 c 0,0.012 0.098,0.012 0.301,0.012 H 8.133 C 8.164,4.465 8.176,4.488 8.176,4.5 8.176,4.59 8.152,4.656 8.098,4.711 H 7.453 L 7.238,5.57 C 7.078,6.203 7,6.543 7,6.59 7,6.758 7.055,6.84 7.164,6.84 7.305,6.84 7.441,6.773 7.574,6.637 7.707,6.504 7.813,6.336 7.895,6.141 7.902,6.117 7.91,6.102 7.926,6.098 7.938,6.09 7.965,6.09 8.012,6.086 h 0.027 c 0.059,0 0.09,0.016 0.09,0.047 0,0.012 -0.008,0.035 -0.02,0.07 C 8.09,6.27 8.055,6.344 8,6.434 7.949,6.516 7.883,6.613 7.797,6.711 7.711,6.813 7.609,6.891 7.488,6.961 7.367,7.027 7.246,7.059 7.121,7.059 7,7.059 6.887,7.027 6.777,6.973 6.672,6.914 6.59,6.813 6.543,6.66 6.523,6.563 6.516,6.527 6.531,6.398 L 6.742,5.563 C 6.883,5.004 6.957,4.723 6.961,4.723 6.961,4.711 6.855,4.711 6.652,4.711 H 6.344" /><g
                   id="g46"><path
                     id="path48"
                     style="fill:none;stroke:#0f0c0c;stroke-width:0.006;stroke-linecap:butt;stroke-linejoin:miter;stroke-miterlimit:4;stroke-dasharray:none;stroke-opacity:1"
                     d="M 6.344,4.707 C 6.316,4.68 6.305,4.66 6.305,4.648 6.305,4.633 6.309,4.598 6.32,4.551 6.332,4.504 6.344,4.477 6.352,4.469 6.359,4.449 6.375,4.438 6.406,4.438 c 0.028,0 0.129,0 0.305,-0.004 h 0.32 L 7.145,3.957 C 7.156,3.914 7.172,3.855 7.188,3.785 7.203,3.715 7.219,3.664 7.23,3.633 7.242,3.602 7.254,3.563 7.266,3.512 7.277,3.465 7.297,3.434 7.316,3.414 7.336,3.395 7.355,3.371 7.375,3.34 7.395,3.313 7.426,3.297 7.461,3.289 7.496,3.281 7.531,3.277 7.566,3.277 7.641,3.281 7.691,3.301 7.719,3.34 7.746,3.383 7.762,3.418 7.762,3.453 7.762,3.48 7.742,3.574 7.707,3.734 7.672,3.891 7.629,4.047 7.586,4.203 L 7.527,4.422 c 0,0.008 0.098,0.012 0.301,0.012 h 0.305 c 0.031,0.027 0.043,0.05 0.043,0.066 0,0.086 -0.024,0.156 -0.078,0.207 H 7.453 L 7.238,5.566 C 7.078,6.199 7,6.539 7,6.586 7,6.754 7.055,6.836 7.164,6.836 7.305,6.836 7.441,6.77 7.574,6.637 7.707,6.5 7.813,6.336 7.895,6.137 7.902,6.113 7.91,6.098 7.926,6.094 7.938,6.09 7.965,6.086 8.012,6.082 h 0.027 c 0.059,0 0.09,0.016 0.09,0.047 0,0.012 -0.008,0.039 -0.02,0.07 C 8.09,6.266 8.055,6.34 8,6.426 7.949,6.516 7.883,6.605 7.797,6.707 7.711,6.805 7.609,6.887 7.488,6.953 7.367,7.023 7.246,7.055 7.121,7.055 7,7.055 6.887,7.027 6.777,6.969 6.672,6.91 6.59,6.805 6.543,6.66 6.535,6.629 6.531,6.574 6.531,6.5 V 6.391 L 6.742,5.559 C 6.883,5.004 6.957,4.723 6.961,4.719 6.961,4.711 6.855,4.707 6.652,4.707 Z" /></g></g></g></g></g></g></g></g></svg>
